0
SECTION
2
HEADER
9
$INSUNITS
70
4
9
$ACADVER
1
AC1014
9
$HANDSEED
5
FFFF
0
ENDSEC
0
SECTION
2
TABLES
0
TABLE
2
VPORT
5
8
100
AcDbSymbolTable
0
ENDTAB
0
TABLE
2
LTYPE
5
5
100
AcDbSymbolTable
0
LTYPE
5
14
100
AcDbSymbolTableRecord
100
AcDbLinetypeTableRecord
2
BYBLOCK
70
0
0
LTYPE
5
15
100
AcDbSymbolTableRecord
100
AcDbLinetypeTableRecord
2
BYLAYER
70
0
0
ENDTAB
0
TABLE
2
LAYER
5
2
100
AcDbSymbolTable
70
2
0
LAYER
5
50
100
AcDbSymbolTableRecord
100
AcDbLayerTableRecord
2
0
70
0
6
CONTINUOUS
0
ENDTAB
0
TABLE
2
STYLE
5
3
100
AcDbSymbolTable
70
1
0
STYLE
5
11
100
AcDbSymbolTableRecord
100
AcDbTextStyleTableRecord
2
STANDARD
70
0
0
ENDTAB
0
TABLE
2
VIEW
5
6
100
AcDbSymbolTable
70
0
0
ENDTAB
0
TABLE
2
UCS
5
7
100
AcDbSymbolTable
70
0
0
ENDTAB
0
TABLE
2
APPID
5
9
100
AcDbSymbolTable
70
2
0
APPID
5
12
100
AcDbSymbolTableRecord
100
AcDbRegAppTableRecord
2
ACAD
70
0
0
ENDTAB
0
TABLE
2
DIMSTYLE
5
A
100
AcDbSymbolTable
70
1
0
ENDTAB
0
TABLE
2
BLOCK_RECORD
5
1
100
AcDbSymbolTable
70
1
0
BLOCK_RECORD
5
1F
100
AcDbSymbolTableRecord
100
AcDbBlockTableRecord
2
*MODEL_SPACE
0
BLOCK_RECORD
5
1B
100
AcDbSymbolTableRecord
100
AcDbBlockTableRecord
2
*PAPER_SPACE
0
ENDTAB
0
ENDSEC
0
SECTION
2
BLOCKS
0
BLOCK
5
20
100
AcDbEntity
100
AcDbBlockBegin
2
*MODEL_SPACE
0
ENDBLK
5
21
100
AcDbEntity
100
AcDbBlockEnd
0
BLOCK
5
1C
100
AcDbEntity
100
AcDbBlockBegin
2
*PAPER_SPACE
0
ENDBLK
5
1D
100
AcDbEntity
100
AcDbBlockEnd
0
ENDSEC
0
SECTION
2
ENTITIES
0
CIRCLE
5
100
100
AcDbEntity
8
0
100
AcDbCircle
10
-447.46951672795063
20
102.53048327204951
30
0
40
1.5000000000000002
0
CIRCLE
5
101
100
AcDbEntity
8
0
100
AcDbCircle
10
-600
20
100
30
0
40
3.0000000000000004
0
CIRCLE
5
102
100
AcDbEntity
8
0
100
AcDbCircle
10
-525
20
70
30
0
40
3.0000000000000004
0
LINE
5
103
100
AcDbEntity
8
0
100
AcDbLine
10
-740
20
0
30
0
11
-360
21
0
31
0
0
CIRCLE
5
104
100
AcDbEntity
8
0
100
AcDbCircle
10
-575
20
130
30
0
40
3.0000000000000004
0
CIRCLE
5
105
100
AcDbEntity
8
0
100
AcDbCircle
10
-575
20
100
30
0
40
3.0000000000000004
0
CIRCLE
5
106
100
AcDbEntity
8
0
100
AcDbCircle
10
-500
20
130
30
0
40
3.0000000000000004
0
CIRCLE
5
107
100
AcDbEntity
8
0
100
AcDbCircle
10
-550
20
70
30
0
40
3.0000000000000004
0
CIRCLE
5
108
100
AcDbEntity
8
0
100
AcDbCircle
10
-550
20
100
30
0
40
3.0000000000000004
0
CIRCLE
5
109
100
AcDbEntity
8
0
100
AcDbCircle
10
-710
20
1.048086166195653e-13
30
0
40
1.4999999999999902
0
CIRCLE
5
110
100
AcDbEntity
8
0
100
AcDbCircle
10
-600
20
70
30
0
40
3.0000000000000004
0
CIRCLE
5
111
100
AcDbEntity
8
0
100
AcDbCircle
10
-575
20
70
30
0
40
3.0000000000000004
0
CIRCLE
5
112
100
AcDbEntity
8
0
100
AcDbCircle
10
-550
20
1.7763568394002505e-14
30
0
40
190
0
CIRCLE
5
113
100
AcDbEntity
8
0
100
AcDbCircle
10
-600
20
130
30
0
40
3.0000000000000004
0
CIRCLE
5
114
100
AcDbEntity
8
0
100
AcDbCircle
10
-500
20
70
30
0
40
3.0000000000000004
0
CIRCLE
5
115
100
AcDbEntity
8
0
100
AcDbCircle
10
-525
20
-70
30
0
40
3.0000000000000004
0
CIRCLE
5
116
100
AcDbEntity
8
0
100
AcDbCircle
10
-575
20
-130
30
0
40
3.0000000000000004
0
CIRCLE
5
117
100
AcDbEntity
8
0
100
AcDbCircle
10
-600
20
-130
30
0
40
3.0000000000000004
0
CIRCLE
5
118
100
AcDbEntity
8
0
100
AcDbCircle
10
-652.53048327204942
20
-102.53048327204937
30
0
40
1.5000000000000002
0
CIRCLE
5
119
100
AcDbEntity
8
0
100
AcDbCircle
10
-500
20
-70
30
0
40
3.0000000000000004
0
CIRCLE
5
120
100
AcDbEntity
8
0
100
AcDbCircle
10
-525
20
-100
30
0
40
3.0000000000000004
0
CIRCLE
5
121
100
AcDbEntity
8
0
100
AcDbCircle
10
-550
20
-100
30
0
40
3.0000000000000004
0
CIRCLE
5
122
100
AcDbEntity
8
0
100
AcDbCircle
10
-575
20
-100
30
0
40
3.0000000000000004
0
CIRCLE
5
123
100
AcDbEntity
8
0
100
AcDbCircle
10
-600
20
-100
30
0
40
3.0000000000000004
0
CIRCLE
5
124
100
AcDbEntity
8
0
100
AcDbCircle
10
-500
20
-130
30
0
40
3.0000000000000004
0
CIRCLE
5
125
100
AcDbEntity
8
0
100
AcDbCircle
10
-575
20
-70
30
0
40
3.0000000000000004
0
CIRCLE
5
126
100
AcDbEntity
8
0
100
AcDbCircle
10
-525
20
-130
30
0
40
3.0000000000000004
0
CIRCLE
5
127
100
AcDbEntity
8
0
100
AcDbCircle
10
-550
20
-130
30
0
40
3.0000000000000004
0
CIRCLE
5
128
100
AcDbEntity
8
0
100
AcDbCircle
10
-550.00000000000011
20
-155
30
0
40
1.5000000000000002
0
CIRCLE
5
129
100
AcDbEntity
8
0
100
AcDbCircle
10
-600
20
-70
30
0
40
3.0000000000000004
0
CIRCLE
5
130
100
AcDbEntity
8
0
100
AcDbCircle
10
-500
20
-100
30
0
40
3.0000000000000004
0
CIRCLE
5
131
100
AcDbEntity
8
0
100
AcDbCircle
10
-550
20
-70
30
0
40
3.0000000000000004
0
LINE
5
132
100
AcDbEntity
8
0
100
AcDbLine
10
-684.35028842544398
20
-134.35028842544401
30
0
11
-415.64971157455602
21
134.35028842544403
31
0
0
LINE
5
133
100
AcDbEntity
8
0
100
AcDbLine
10
-684.35028842544398
20
134.35028842544398
30
0
11
-415.64971157455597
21
-134.35028842544401
31
0
0
CIRCLE
5
134
100
AcDbEntity
8
0
100
AcDbCircle
10
-525
20
100
30
0
40
3.0000000000000004
0
CIRCLE
5
135
100
AcDbEntity
8
0
100
AcDbCircle
10
-390
20
4.1554919796641618e-17
30
0
40
1.4999999999999902
0
CIRCLE
5
136
100
AcDbEntity
8
0
100
AcDbCircle
10
-525
20
130
30
0
40
3.0000000000000004
0
CIRCLE
5
137
100
AcDbEntity
8
0
100
AcDbCircle
10
-550
20
130
30
0
40
3.0000000000000004
0
CIRCLE
5
138
100
AcDbEntity
8
0
100
AcDbCircle
10
-500
20
100
30
0
40
3.0000000000000004
0
CIRCLE
5
139
100
AcDbEntity
8
0
100
AcDbCircle
10
-447.46951672795063
20
-102.53048327204935
30
0
40
1.4999999999999845
0
LINE
5
140
100
AcDbEntity
8
0
100
AcDbLine
10
-550
20
-190
30
0
11
-550
21
190
31
0
0
CIRCLE
5
141
100
AcDbEntity
8
0
100
AcDbCircle
10
-652.53048327204942
20
102.53048327204934
30
0
40
1.4999999999999845
0
CIRCLE
5
142
100
AcDbEntity
8
0
100
AcDbCircle
10
-550
20
-170
30
0
40
1.5000000000000016
0
CIRCLE
5
143
100
AcDbEntity
8
0
100
AcDbCircle
10
-550.00000000000011
20
155
30
0
40
1.5000000000000002
0
CIRCLE
5
144
100
AcDbEntity
8
0
100
AcDbCircle
10
-550
20
170
30
0
40
1.5000000000000016
0
CIRCLE
5
145
100
AcDbEntity
8
0
100
AcDbCircle
10
-375
20
0
30
0
40
1.5000000000000002
0
CIRCLE
5
146
100
AcDbEntity
8
0
100
AcDbCircle
10
-429.79184719828686
20
-120.20815280171306
30
0
40
1.4999999999999845
0
CIRCLE
5
147
100
AcDbEntity
8
0
100
AcDbCircle
10
-670.20815280171303
20
-120.20815280171313
30
0
40
1.4999999999999707
0
CIRCLE
5
148
100
AcDbEntity
8
0
100
AcDbCircle
10
-725
20
0
30
0
40
1.5000000000000002
0
CIRCLE
5
149
100
AcDbEntity
8
0
100
AcDbCircle
10
-429.7918471982868
20
120.2081528017132
30
0
40
1.4999999999999707
0
CIRCLE
5
150
100
AcDbEntity
8
0
100
AcDbCircle
10
-550
20
170
30
0
40
1.5000000000000016
0
CIRCLE
5
151
100
AcDbEntity
8
0
100
AcDbCircle
10
-670.20815280171314
20
120.20815280171308
30
0
40
1.4999999999999845
0
CIRCLE
5
152
100
AcDbEntity
8
0
100
AcDbCircle
10
-564.14213562373095
20
-14.142135623730923
30
0
40
1.5000000000000062
0
CIRCLE
5
153
100
AcDbEntity
8
0
100
AcDbCircle
10
-578.2842712474619
20
-28.284271247461863
30
0
40
1.500000000000016
0
CIRCLE
5
154
100
AcDbEntity
8
0
100
AcDbCircle
10
-521.7157287525381
20
28.28427124746197
30
0
40
1.500000000000016
0
CIRCLE
5
155
100
AcDbEntity
8
0
100
AcDbCircle
10
-535.85786437626905
20
14.142135623730958
30
0
40
1.5000000000000062
0
ENDSEC
0
SECTION
2
OBJECTS
0
DICTIONARY
5
C
100
AcDbDictionary
3
ACAD_GROUP
350
D
3
ACAD_MLINESTYLE
350
17
0
DICTIONARY
5
D
100
AcDbDictionary
0
DICTIONARY
5
1A
330
C
100
AcDbDictionary
0
DICTIONARY
5
17
100
AcDbDictionary
0
ENDSEC
0
EOF
