0
SECTION
2
HEADER
9
$INSUNITS
70
4
9
$ACADVER
1
AC1014
9
$HANDSEED
5
FFFF
0
ENDSEC
0
SECTION
2
TABLES
0
TABLE
2
VPORT
5
8
100
AcDbSymbolTable
0
ENDTAB
0
TABLE
2
LTYPE
5
5
100
AcDbSymbolTable
0
LTYPE
5
14
100
AcDbSymbolTableRecord
100
AcDbLinetypeTableRecord
2
BYBLOCK
70
0
0
LTYPE
5
15
100
AcDbSymbolTableRecord
100
AcDbLinetypeTableRecord
2
BYLAYER
70
0
0
ENDTAB
0
TABLE
2
LAYER
5
2
100
AcDbSymbolTable
70
2
0
LAYER
5
50
100
AcDbSymbolTableRecord
100
AcDbLayerTableRecord
2
0
70
0
6
CONTINUOUS
0
ENDTAB
0
TABLE
2
STYLE
5
3
100
AcDbSymbolTable
70
1
0
STYLE
5
11
100
AcDbSymbolTableRecord
100
AcDbTextStyleTableRecord
2
STANDARD
70
0
0
ENDTAB
0
TABLE
2
VIEW
5
6
100
AcDbSymbolTable
70
0
0
ENDTAB
0
TABLE
2
UCS
5
7
100
AcDbSymbolTable
70
0
0
ENDTAB
0
TABLE
2
APPID
5
9
100
AcDbSymbolTable
70
2
0
APPID
5
12
100
AcDbSymbolTableRecord
100
AcDbRegAppTableRecord
2
ACAD
70
0
0
ENDTAB
0
TABLE
2
DIMSTYLE
5
A
100
AcDbSymbolTable
70
1
0
ENDTAB
0
TABLE
2
BLOCK_RECORD
5
1
100
AcDbSymbolTable
70
1
0
BLOCK_RECORD
5
1F
100
AcDbSymbolTableRecord
100
AcDbBlockTableRecord
2
*MODEL_SPACE
0
BLOCK_RECORD
5
1B
100
AcDbSymbolTableRecord
100
AcDbBlockTableRecord
2
*PAPER_SPACE
0
ENDTAB
0
ENDSEC
0
SECTION
2
BLOCKS
0
BLOCK
5
20
100
AcDbEntity
100
AcDbBlockBegin
2
*MODEL_SPACE
0
ENDBLK
5
21
100
AcDbEntity
100
AcDbBlockEnd
0
BLOCK
5
1C
100
AcDbEntity
100
AcDbBlockBegin
2
*PAPER_SPACE
0
ENDBLK
5
1D
100
AcDbEntity
100
AcDbBlockEnd
0
ENDSEC
0
SECTION
2
ENTITIES
0
CIRCLE
5
100
100
AcDbEntity
8
0
100
AcDbCircle
10
39.999999999999986
20
-1.0000000000001141
30
0
40
1.4999999999999991
0
CIRCLE
5
101
100
AcDbEntity
8
0
100
AcDbCircle
10
9.9999999999999893
20
6.4999999999998863
30
0
40
1.5000000000000002
0
CIRCLE
5
102
100
AcDbEntity
8
0
100
AcDbCircle
10
19.999999999999989
20
6.4999999999998863
30
0
40
1.5000000000000013
0
LWPOLYLINE
5
103
100
AcDbEntity
8
0
100
AcDbPolyline
90
4
70
1
43
0.0
10
-45.000000000000036
20
-23.000000000000004
10
-45.000000000000014
20
-25.000000000000007
10
-15.000000000000009
20
-25.000000000000004
10
-14.999999999999982
20
-23.000000000000007
0
CIRCLE
5
104
100
AcDbEntity
8
0
100
AcDbCircle
10
-10.000000000000011
20
13.999999999999886
30
0
40
1.5000000000000013
0
CIRCLE
5
105
100
AcDbEntity
8
0
100
AcDbCircle
10
9.9999999999999893
20
-1.0000000000001141
30
0
40
1.5000000000000002
0
CIRCLE
5
106
100
AcDbEntity
8
0
100
AcDbCircle
10
-20.000000000000014
20
13.999999999999886
30
0
40
1.4999999999999991
0
LWPOLYLINE
5
107
100
AcDbEntity
8
0
100
AcDbPolyline
90
4
70
1
43
0.0
10
-96.000000000000099
20
-32.000000000000014
10
-92.000000000000099
20
-32.000000000000014
10
-92.000000000000099
20
-22.000000000000011
10
-96.000000000000099
20
-22.000000000000011
0
CIRCLE
5
108
100
AcDbEntity
8
0
100
AcDbCircle
10
-10.000000000000011
20
6.4999999999998863
30
0
40
1.5000000000000013
0
CIRCLE
5
109
100
AcDbEntity
8
0
100
AcDbCircle
10
29.999999999999986
20
13.999999999999886
30
0
40
1.4999999999999991
0
CIRCLE
5
110
100
AcDbEntity
8
0
100
AcDbCircle
10
29.999999999999986
20
6.4999999999998863
30
0
40
1.4999999999999991
0
CIRCLE
5
111
100
AcDbEntity
8
0
100
AcDbCircle
10
19.999999999999989
20
-1.0000000000001141
30
0
40
1.5000000000000013
0
CIRCLE
5
112
100
AcDbEntity
8
0
100
AcDbCircle
10
-10.000000000000011
20
-1.0000000000001141
30
0
40
1.5000000000000013
0
LWPOLYLINE
5
113
100
AcDbEntity
8
0
100
AcDbPolyline
90
4
70
1
43
0.0
10
96.000000000000142
20
-21.999999999999922
10
92.000000000000142
20
-21.999999999999929
10
92.000000000000142
20
-31.999999999999929
10
96.000000000000142
20
-31.999999999999922
0
CIRCLE
5
114
100
AcDbEntity
8
0
100
AcDbCircle
10
39.999999999999986
20
6.4999999999998863
30
0
40
1.4999999999999991
0
CIRCLE
5
115
100
AcDbEntity
8
0
100
AcDbCircle
10
9.9999999999999893
20
13.999999999999886
30
0
40
1.5000000000000002
0
CIRCLE
5
116
100
AcDbEntity
8
0
100
AcDbCircle
10
19.999999999999989
20
13.999999999999886
30
0
40
1.5000000000000013
0
CIRCLE
5
117
100
AcDbEntity
8
0
100
AcDbCircle
10
-30.000000000000014
20
13.999999999999886
30
0
40
1.4999999999999991
0
CIRCLE
5
118
100
AcDbEntity
8
0
100
AcDbCircle
10
-30.000000000000014
20
-1.0000000000001141
30
0
40
1.4999999999999991
0
LWPOLYLINE
5
119
100
AcDbEntity
8
0
100
AcDbPolyline
90
4
70
1
43
0.0
10
96.000000000000142
20
21.999999999999904
10
96.000000000000142
20
31.999999999999904
10
92.000000000000142
20
31.999999999999915
10
92.000000000000142
20
21.999999999999915
0
LWPOLYLINE
5
120
100
AcDbEntity
8
0
100
AcDbPolyline
90
4
70
1
43
0.0
10
-96.000000000000114
20
21.999999999999993
10
-92.000000000000099
20
21.999999999999993
10
-92.000000000000099
20
31.999999999999993
10
-96.000000000000114
20
31.999999999999993
0
CIRCLE
5
121
100
AcDbEntity
8
0
100
AcDbCircle
10
-40.000000000000007
20
13.999999999999886
30
0
40
1.5000000000000036
0
CIRCLE
5
122
100
AcDbEntity
8
0
100
AcDbCircle
10
29.999999999999986
20
-1.0000000000001141
30
0
40
1.4999999999999991
0
CIRCLE
5
123
100
AcDbEntity
8
0
100
AcDbCircle
10
-30.000000000000014
20
6.4999999999998863
30
0
40
1.4999999999999991
0
CIRCLE
5
124
100
AcDbEntity
8
0
100
AcDbCircle
10
39.999999999999986
20
13.999999999999886
30
0
40
1.4999999999999991
0
LWPOLYLINE
5
125
100
AcDbEntity
8
0
100
AcDbPolyline
90
4
70
1
43
0.0
10
14.999999999999991
20
-25.000000000000007
10
44.999999999999986
20
-25.000000000000007
10
44.999999999999993
20
-23.000000000000007
10
14.999999999999964
20
-23.000000000000007
0
LWPOLYLINE
5
126
100
AcDbEntity
8
0
100
AcDbPolyline
90
4
70
1
43
0.0
10
-45.000000000000014
20
-12.000000000000064
10
-45.000000000000014
20
-19.00000000000006
10
-15
20
-19.000000000000092
10
-15
20
-12.000000000000057
0
CIRCLE
5
127
100
AcDbEntity
8
0
100
AcDbCircle
10
-20.000000000000014
20
6.4999999999998863
30
0
40
1.4999999999999991
0
CIRCLE
5
128
100
AcDbEntity
8
0
100
AcDbCircle
10
-40.000000000000007
20
6.4999999999998863
30
0
40
1.5000000000000036
0
LWPOLYLINE
5
129
100
AcDbEntity
8
0
100
AcDbPolyline
90
4
70
1
43
0.0
10
14.999999999999982
20
-19.000000000000096
10
44.999999999999986
20
-19.00000000000006
10
44.999999999999986
20
-12.00000000000006
10
14.999999999999979
20
-12.00000000000006
0
LWPOLYLINE
5
130
100
AcDbEntity
8
0
100
AcDbPolyline
90
4
70
1
43
0.0
10
-45
20
-8.0000000000001172
10
-14.999999999999982
20
-8.0000000000001528
10
-15
20
-6.0000000000001528
10
-45
20
-6.0000000000001164
0
CIRCLE
5
131
100
AcDbEntity
8
0
100
AcDbCircle
10
-20.000000000000014
20
-1.0000000000001141
30
0
40
1.4999999999999991
0
LWPOLYLINE
5
132
100
AcDbEntity
8
0
100
AcDbPolyline
90
4
70
1
43
0.0
10
44.999999999999993
20
-8.0000000000001137
10
44.999999999999986
20
-6.000000000000111
10
14.999999999999973
20
-6.0000000000001572
10
14.999999999999956
20
-8.0000000000001599
0
CIRCLE
5
133
100
AcDbEntity
8
0
100
AcDbCircle
10
-40.000000000000007
20
-1.0000000000001141
30
0
40
1.5000000000000036
0
LWPOLYLINE
5
134
100
AcDbEntity
8
0
100
AcDbPolyline
90
4
70
1
43
0.0
10
100.00000000000001
20
-40.000000000000007
10
-99.999999999999986
20
-40.000000000000007
10
-100
20
39.999999999999993
10
99.999999999999929
20
39.999999999999993
0
ENDSEC
0
SECTION
2
OBJECTS
0
DICTIONARY
5
C
100
AcDbDictionary
3
ACAD_GROUP
350
D
3
ACAD_MLINESTYLE
350
17
0
DICTIONARY
5
D
100
AcDbDictionary
0
DICTIONARY
5
1A
330
C
100
AcDbDictionary
0
DICTIONARY
5
17
100
AcDbDictionary
0
ENDSEC
0
EOF
