0
SECTION
2
HEADER
9
$INSUNITS
70
4
9
$ACADVER
1
AC1014
9
$HANDSEED
5
FFFF
0
ENDSEC
0
SECTION
2
TABLES
0
TABLE
2
VPORT
5
8
100
AcDbSymbolTable
0
ENDTAB
0
TABLE
2
LTYPE
5
5
100
AcDbSymbolTable
0
LTYPE
5
14
100
AcDbSymbolTableRecord
100
AcDbLinetypeTableRecord
2
BYBLOCK
70
0
0
LTYPE
5
15
100
AcDbSymbolTableRecord
100
AcDbLinetypeTableRecord
2
BYLAYER
70
0
0
ENDTAB
0
TABLE
2
LAYER
5
2
100
AcDbSymbolTable
70
2
0
LAYER
5
50
100
AcDbSymbolTableRecord
100
AcDbLayerTableRecord
2
0
70
0
6
CONTINUOUS
0
ENDTAB
0
TABLE
2
STYLE
5
3
100
AcDbSymbolTable
70
1
0
STYLE
5
11
100
AcDbSymbolTableRecord
100
AcDbTextStyleTableRecord
2
STANDARD
70
0
0
ENDTAB
0
TABLE
2
VIEW
5
6
100
AcDbSymbolTable
70
0
0
ENDTAB
0
TABLE
2
UCS
5
7
100
AcDbSymbolTable
70
0
0
ENDTAB
0
TABLE
2
APPID
5
9
100
AcDbSymbolTable
70
2
0
APPID
5
12
100
AcDbSymbolTableRecord
100
AcDbRegAppTableRecord
2
ACAD
70
0
0
ENDTAB
0
TABLE
2
DIMSTYLE
5
A
100
AcDbSymbolTable
70
1
0
ENDTAB
0
TABLE
2
BLOCK_RECORD
5
1
100
AcDbSymbolTable
70
1
0
BLOCK_RECORD
5
1F
100
AcDbSymbolTableRecord
100
AcDbBlockTableRecord
2
*MODEL_SPACE
0
BLOCK_RECORD
5
1B
100
AcDbSymbolTableRecord
100
AcDbBlockTableRecord
2
*PAPER_SPACE
0
ENDTAB
0
ENDSEC
0
SECTION
2
BLOCKS
0
BLOCK
5
20
100
AcDbEntity
100
AcDbBlockBegin
2
*MODEL_SPACE
0
ENDBLK
5
21
100
AcDbEntity
100
AcDbBlockEnd
0
BLOCK
5
1C
100
AcDbEntity
100
AcDbBlockBegin
2
*PAPER_SPACE
0
ENDBLK
5
1D
100
AcDbEntity
100
AcDbBlockEnd
0
ENDSEC
0
SECTION
2
ENTITIES
0
CIRCLE
5
100
100
AcDbEntity
8
0
100
AcDbCircle
10
176.14193691806545
20
-1.2844857769831575e-13
30
0
40
1.4999999999999858
0
CIRCLE
5
101
100
AcDbEntity
8
0
100
AcDbCircle
10
102.53048327204942
20
-102.53048327204937
30
0
40
1.5000000000000036
0
CIRCLE
5
102
100
AcDbEntity
8
0
100
AcDbCircle
10
-25
20
-67.947646633616117
30
0
40
2.9999999999999982
0
CIRCLE
5
103
100
AcDbEntity
8
0
100
AcDbCircle
10
-8.500000000000199
20
-175
30
0
40
1.5000000000000013
0
CIRCLE
5
104
100
AcDbEntity
8
0
100
AcDbCircle
10
24.999999999999982
20
-97.947646633616174
30
0
40
2.9999999999999982
0
CIRCLE
5
105
100
AcDbEntity
8
0
100
AcDbCircle
10
5.3100926390566353e-14
20
67.947646633616131
30
0
40
3.0000000000000004
0
CIRCLE
5
106
100
AcDbEntity
8
0
100
AcDbCircle
10
-50
20
-67.947646633616102
30
0
40
2.9999999999999982
0
CIRCLE
5
107
100
AcDbEntity
8
0
100
AcDbCircle
10
-25.000000000000043
20
-127.9476466336161
30
0
40
2.9999999999999982
0
CIRCLE
5
108
100
AcDbEntity
8
0
100
AcDbCircle
10
-49.999999999999943
20
127.94764663361613
30
0
40
2.9999999999999982
0
CIRCLE
5
109
100
AcDbEntity
8
0
100
AcDbCircle
10
8.5000000000000693
20
-175
30
0
40
1.5000000000000002
0
CIRCLE
5
110
100
AcDbEntity
8
0
100
AcDbCircle
10
-24.999999999999947
20
97.947646633616131
30
0
40
2.9999999999999982
0
LWPOLYLINE
5
111
100
AcDbEntity
8
0
100
AcDbPolyline
90
8
70
1
43
0.0
10
104.99999999999997
20
36.999999999999929
10
104.99999999999989
20
-37.000000000000078
10
106.99999976553835
20
-36.999031574797947
10
106.99876903864877
20
-51.999031524308315
10
165.9984645495459
20
-52.18858262903229
10
165.99846454954695
20
52.188582629035061
10
106.99876903864885
20
51.999031524308165
10
106.99999976553826
20
36.999031574800732
0
CIRCLE
5
112
100
AcDbEntity
8
0
100
AcDbCircle
10
-102.53048327204937
20
-102.53048327204948
30
0
40
1.5000000000000036
0
CIRCLE
5
113
100
AcDbEntity
8
0
100
AcDbCircle
10
38.890872965260087
20
38.890872965260129
30
0
40
1.500000000000008
0
CIRCLE
5
114
100
AcDbEntity
8
0
100
AcDbCircle
10
99.999999999999972
20
29.999999999999936
30
0
40
1.5000000000000036
0
CIRCLE
5
115
100
AcDbEntity
8
0
100
AcDbCircle
10
-88.999999999999929
20
-30.000000000000007
30
0
40
1.5000000000000036
0
CIRCLE
5
116
100
AcDbEntity
8
0
100
AcDbCircle
10
-2.0800531004669863e-14
20
-97.947646633616131
30
0
40
3.0000000000000004
0
CIRCLE
5
117
100
AcDbEntity
8
0
100
AcDbCircle
10
1.8344561365809705e-15
20
-67.947646633616131
30
0
40
3.0000000000000004
0
CIRCLE
5
118
100
AcDbEntity
8
0
100
AcDbCircle
10
-49.999999999999943
20
67.947646633616131
30
0
40
2.9999999999999982
0
CIRCLE
5
119
100
AcDbEntity
8
0
100
AcDbCircle
10
126.21856044179873
20
-114.19774516162758
30
0
40
0.99999999999999645
0
CIRCLE
5
120
100
AcDbEntity
8
0
100
AcDbCircle
10
-176.14193691806545
20
-6.0103015465720754e-17
30
0
40
1.4999999999999858
0
CIRCLE
5
121
100
AcDbEntity
8
0
100
AcDbCircle
10
-38.890872965260115
20
-38.890872965260151
30
0
40
1.5000000000000122
0
CIRCLE
5
122
100
AcDbEntity
8
0
100
AcDbCircle
10
-50.000000000000036
20
-127.9476466336161
30
0
40
2.9999999999999982
0
CIRCLE
5
123
100
AcDbEntity
8
0
100
AcDbCircle
10
-4.3435518145920702e-14
20
-127.94764663361613
30
0
40
3.0000000000000004
0
CIRCLE
5
124
100
AcDbEntity
8
0
100
AcDbCircle
10
-102.53048327204942
20
102.53048327204937
30
0
40
1.5000000000000036
0
CIRCLE
5
125
100
AcDbEntity
8
0
100
AcDbCircle
10
-49.999999999999943
20
97.947646633616131
30
0
40
2.9999999999999982
0
CIRCLE
5
126
100
AcDbEntity
8
0
100
AcDbCircle
10
25.000000000000053
20
97.947646633616131
30
0
40
2.9999999999999982
0
CIRCLE
5
127
100
AcDbEntity
8
0
100
AcDbCircle
10
49.999999999999986
20
-97.947646633616174
30
0
40
2.9999999999999982
0
CIRCLE
5
128
100
AcDbEntity
8
0
100
AcDbCircle
10
50
20
-67.947646633616174
30
0
40
2.9999999999999982
0
CIRCLE
5
129
100
AcDbEntity
8
0
100
AcDbCircle
10
25.000000000000053
20
127.94764663361613
30
0
40
2.9999999999999982
0
CIRCLE
5
130
100
AcDbEntity
8
0
100
AcDbCircle
10
-88.999999999999929
20
30.000000000000007
30
0
40
1.5000000000000036
0
CIRCLE
5
131
100
AcDbEntity
8
0
100
AcDbCircle
10
5.3100926390566353e-14
20
127.94764663361613
30
0
40
3.0000000000000004
0
CIRCLE
5
132
100
AcDbEntity
8
0
100
AcDbCircle
10
88.999999999999901
20
-30.000000000000071
30
0
40
1.5000000000000036
0
CIRCLE
5
133
100
AcDbEntity
8
0
100
AcDbCircle
10
-99.999999999999929
20
-30.000000000000007
30
0
40
1.5000000000000036
0
CIRCLE
5
134
100
AcDbEntity
8
0
100
AcDbCircle
10
50.000000000000057
20
67.947646633616131
30
0
40
2.9999999999999982
0
CIRCLE
5
135
100
AcDbEntity
8
0
100
AcDbCircle
10
-24.999999999999947
20
127.94764663361613
30
0
40
2.9999999999999982
0
CIRCLE
5
136
100
AcDbEntity
8
0
100
AcDbCircle
10
99.999999999999886
20
-30.000000000000078
30
0
40
1.5000000000000036
0
CIRCLE
5
137
100
AcDbEntity
8
0
100
AcDbCircle
10
-50.000000000000014
20
-97.947646633616102
30
0
40
2.9999999999999982
0
LWPOLYLINE
5
138
100
AcDbEntity
8
0
100
AcDbPolyline
90
8
70
1
43
0.0
10
-104.99999999999993
20
-37
10
-104.99999999999993
20
37
10
-106.99999976553823
20
36.99903157480081
10
-106.99876903864879
20
51.999031524308222
10
-165.99846454954599
20
52.18858262903219
10
-165.99846454954599
20
-52.188582629032176
10
-106.99876903864879
20
-51.999031524308222
10
-106.99999976553838
20
-36.99903157480081
0
CIRCLE
5
139
100
AcDbEntity
8
0
100
AcDbCircle
10
25.000000000000053
20
67.947646633616131
30
0
40
2.9999999999999982
0
CIRCLE
5
140
100
AcDbEntity
8
0
100
AcDbCircle
10
50.000000000000057
20
97.947646633616131
30
0
40
2.9999999999999982
0
CIRCLE
5
141
100
AcDbEntity
8
0
100
AcDbCircle
10
102.53048327204937
20
102.53048327204939
30
0
40
1.5000000000000036
0
CIRCLE
5
142
100
AcDbEntity
8
0
100
AcDbCircle
10
25
20
-70
30
0
40
2.9999999999999982
0
CIRCLE
5
143
100
AcDbEntity
8
0
100
AcDbCircle
10
-25.000000000000018
20
-97.947646633616102
30
0
40
2.9999999999999982
0
CIRCLE
5
144
100
AcDbEntity
8
0
100
AcDbCircle
10
-99.999999999999929
20
30.000000000000007
30
0
40
1.5000000000000036
0
CIRCLE
5
145
100
AcDbEntity
8
0
100
AcDbCircle
10
-114.19774516162744
20
-126.21856044179887
30
0
40
0.99999999999999645
0
CIRCLE
5
146
100
AcDbEntity
8
0
100
AcDbCircle
10
-24.999999999999947
20
67.947646633616131
30
0
40
2.9999999999999982
0
CIRCLE
5
147
100
AcDbEntity
8
0
100
AcDbCircle
10
6.2500000000000693
20
172.94764663361616
30
0
40
1.0000000149011612
0
CIRCLE
5
148
100
AcDbEntity
8
0
100
AcDbCircle
10
49.999999999999964
20
-127.94764663361617
30
0
40
2.9999999999999982
0
CIRCLE
5
149
100
AcDbEntity
8
0
100
AcDbCircle
10
88.999999999999972
20
29.999999999999947
30
0
40
1.5000000000000036
0
CIRCLE
5
150
100
AcDbEntity
8
0
100
AcDbCircle
10
24.999999999999957
20
-127.94764663361617
30
0
40
2.9999999999999982
0
CIRCLE
5
151
100
AcDbEntity
8
0
100
AcDbCircle
10
114.19774516162735
20
-126.21856044179893
30
0
40
0.99999999999999645
0
CIRCLE
5
152
100
AcDbEntity
8
0
100
AcDbCircle
10
-5.9107803166803879e-14
20
-150
30
0
40
5.0000000000000036
0
CIRCLE
5
153
100
AcDbEntity
8
0
100
AcDbCircle
10
-126.2185604417988
20
-114.19774516162747
30
0
40
0.99999999999999645
0
CIRCLE
5
154
100
AcDbEntity
8
0
100
AcDbCircle
10
5.3100926390566353e-14
20
97.947646633616131
30
0
40
3.0000000000000004
0
CIRCLE
5
155
100
AcDbEntity
8
0
100
AcDbCircle
10
-6.2499999999999423
20
172.94764663361616
30
0
40
1.0000000149011612
0
CIRCLE
5
156
100
AcDbEntity
8
0
100
AcDbCircle
10
50.000000000000057
20
127.94764663361613
30
0
40
2.9999999999999982
0
LWPOLYLINE
5
157
100
AcDbEntity
8
0
100
AcDbPolyline
90
6
70
1
43
0.0
10
188.14193691806548
20
-26.506821248853505
42
-0.86898849575651327
10
-188.14193691806543
20
-26.506821248853388
10
-188.14193691806548
20
23.493178751146676
42
-0.34094193684682822
10
-25.000000000000004
20
187.94764663361616
10
25.000000000000057
20
187.9476466336161
42
-0.3409419368468285
10
188.14193691806543
20
23.493178751146445
0
ENDSEC
0
SECTION
2
OBJECTS
0
DICTIONARY
5
C
100
AcDbDictionary
3
ACAD_GROUP
350
D
3
ACAD_MLINESTYLE
350
17
0
DICTIONARY
5
D
100
AcDbDictionary
0
DICTIONARY
5
1A
330
C
100
AcDbDictionary
0
DICTIONARY
5
17
100
AcDbDictionary
0
ENDSEC
0
EOF
