0
SECTION
2
HEADER
9
$INSUNITS
70
4
9
$ACADVER
1
AC1014
9
$HANDSEED
5
FFFF
0
ENDSEC
0
SECTION
2
TABLES
0
TABLE
2
VPORT
5
8
100
AcDbSymbolTable
0
ENDTAB
0
TABLE
2
LTYPE
5
5
100
AcDbSymbolTable
0
LTYPE
5
14
100
AcDbSymbolTableRecord
100
AcDbLinetypeTableRecord
2
BYBLOCK
70
0
0
LTYPE
5
15
100
AcDbSymbolTableRecord
100
AcDbLinetypeTableRecord
2
BYLAYER
70
0
0
ENDTAB
0
TABLE
2
LAYER
5
2
100
AcDbSymbolTable
70
2
0
LAYER
5
50
100
AcDbSymbolTableRecord
100
AcDbLayerTableRecord
2
0
70
0
6
CONTINUOUS
0
ENDTAB
0
TABLE
2
STYLE
5
3
100
AcDbSymbolTable
70
1
0
STYLE
5
11
100
AcDbSymbolTableRecord
100
AcDbTextStyleTableRecord
2
STANDARD
70
0
0
ENDTAB
0
TABLE
2
VIEW
5
6
100
AcDbSymbolTable
70
0
0
ENDTAB
0
TABLE
2
UCS
5
7
100
AcDbSymbolTable
70
0
0
ENDTAB
0
TABLE
2
APPID
5
9
100
AcDbSymbolTable
70
2
0
APPID
5
12
100
AcDbSymbolTableRecord
100
AcDbRegAppTableRecord
2
ACAD
70
0
0
ENDTAB
0
TABLE
2
DIMSTYLE
5
A
100
AcDbSymbolTable
70
1
0
ENDTAB
0
TABLE
2
BLOCK_RECORD
5
1
100
AcDbSymbolTable
70
1
0
BLOCK_RECORD
5
1F
100
AcDbSymbolTableRecord
100
AcDbBlockTableRecord
2
*MODEL_SPACE
0
BLOCK_RECORD
5
1B
100
AcDbSymbolTableRecord
100
AcDbBlockTableRecord
2
*PAPER_SPACE
0
ENDTAB
0
ENDSEC
0
SECTION
2
BLOCKS
0
BLOCK
5
20
100
AcDbEntity
100
AcDbBlockBegin
2
*MODEL_SPACE
0
ENDBLK
5
21
100
AcDbEntity
100
AcDbBlockEnd
0
BLOCK
5
1C
100
AcDbEntity
100
AcDbBlockBegin
2
*PAPER_SPACE
0
ENDBLK
5
1D
100
AcDbEntity
100
AcDbBlockEnd
0
ENDSEC
0
SECTION
2
ENTITIES
0
CIRCLE
5
100
100
AcDbEntity
8
0
100
AcDbCircle
10
588.89087296526009
20
38.890872965260044
30
0
40
1.4999999999999858
0
LWPOLYLINE
5
101
100
AcDbEntity
8
0
100
AcDbPolyline
90
4
70
1
43
0.0
10
476.00000000000011
20
115.41664687252465
10
478
20
115.41664687252465
10
478.00000000000006
20
155.41664687252467
10
476
20
155.41664687252467
0
CIRCLE
5
102
100
AcDbEntity
8
0
100
AcDbCircle
10
725
20
0
30
0
40
1.5000000000000568
0
CIRCLE
5
103
100
AcDbEntity
8
0
100
AcDbCircle
10
450
20
50
30
0
40
1.4999999999999858
0
CIRCLE
5
104
100
AcDbEntity
8
0
100
AcDbCircle
10
562.5
20
-24.160000000000036
30
0
40
1.4999999999999858
0
CIRCLE
5
105
100
AcDbEntity
8
0
100
AcDbCircle
10
450.48000000000002
20
-74.765000000000015
30
0
40
1.6499999999999915
0
CIRCLE
5
106
100
AcDbEntity
8
0
100
AcDbCircle
10
504.03805922287438
20
-45.961940777125641
30
0
40
1.4999999999999858
0
CIRCLE
5
107
100
AcDbEntity
8
0
100
AcDbCircle
10
595.96194077712562
20
45.961940777125569
30
0
40
1.4999999999999858
0
CIRCLE
5
108
100
AcDbEntity
8
0
100
AcDbCircle
10
429.7918471982868
20
-120.2081528017132
30
0
40
1.4999999999999858
0
CIRCLE
5
109
100
AcDbEntity
8
0
100
AcDbCircle
10
389.5200000000001
20
-74.765000000000086
30
0
40
1.6499999999999915
0
CIRCLE
5
110
100
AcDbEntity
8
0
100
AcDbCircle
10
430
20
10
30
0
40
1.4999999999999858
0
CIRCLE
5
111
100
AcDbEntity
8
0
100
AcDbCircle
10
430
20
50
30
0
40
1.4999999999999858
0
CIRCLE
5
112
100
AcDbEntity
8
0
100
AcDbCircle
10
390
20
50
30
0
40
1.4999999999999858
0
CIRCLE
5
113
100
AcDbEntity
8
0
100
AcDbCircle
10
447.46951672795063
20
-102.53048327204951
30
0
40
1.4999999999999858
0
CIRCLE
5
114
100
AcDbEntity
8
0
100
AcDbCircle
10
670.20815280171314
20
-120.20815280171308
30
0
40
1.4999999999999147
0
CIRCLE
5
115
100
AcDbEntity
8
0
100
AcDbCircle
10
429.79184719828686
20
120.20815280171306
30
0
40
1.4999999999999858
0
LWPOLYLINE
5
116
100
AcDbEntity
8
0
100
AcDbPolyline
90
4
70
1
43
0.0
10
622
20
115.41664687252465
10
623.99999999999989
20
115.41664687252465
10
624
20
155.41664687252467
10
622
20
155.41664687252467
0
CIRCLE
5
117
100
AcDbEntity
8
0
100
AcDbCircle
10
390
20
30
30
0
40
1.4999999999999858
0
CIRCLE
5
118
100
AcDbEntity
8
0
100
AcDbCircle
10
450
20
10
30
0
40
1.4999999999999858
0
CIRCLE
5
119
100
AcDbEntity
8
0
100
AcDbCircle
10
652.53048327204942
20
102.53048327204937
30
0
40
1.5000000000000568
0
CIRCLE
5
120
100
AcDbEntity
8
0
100
AcDbCircle
10
537.5
20
45.839999999999996
30
0
40
1.4999999999999858
0
CIRCLE
5
121
100
AcDbEntity
8
0
100
AcDbCircle
10
390
20
10
30
0
40
1.4999999999999858
0
CIRCLE
5
122
100
AcDbEntity
8
0
100
AcDbCircle
10
670.20815280171303
20
-52
30
0
40
1.5000000000000568
0
CIRCLE
5
123
100
AcDbEntity
8
0
100
AcDbCircle
10
670.20815280171303
20
120.20815280171313
30
0
40
1.4999999999999147
0
CIRCLE
5
124
100
AcDbEntity
8
0
100
AcDbCircle
10
389.51999999999998
20
-25.235000000000003
30
0
40
1.6499999999999915
0
CIRCLE
5
125
100
AcDbEntity
8
0
100
AcDbCircle
10
410
20
30
30
0
40
1.4999999999999858
0
CIRCLE
5
126
100
AcDbEntity
8
0
100
AcDbCircle
10
710
20
-1.048086166195653e-13
30
0
40
1.5000000000000568
0
CIRCLE
5
127
100
AcDbEntity
8
0
100
AcDbCircle
10
562.5
20
45.839999999999996
30
0
40
1.4999999999999858
0
CIRCLE
5
128
100
AcDbEntity
8
0
100
AcDbCircle
10
375
20
0
30
0
40
1.4999999999999858
0
CIRCLE
5
129
100
AcDbEntity
8
0
100
AcDbCircle
10
447.46951672795063
20
102.53048327204935
30
0
40
1.4999999999999858
0
CIRCLE
5
130
100
AcDbEntity
8
0
100
AcDbCircle
10
511.10912703473986
20
-38.890872965260151
30
0
40
1.4999999999999858
0
CIRCLE
5
131
100
AcDbEntity
8
0
100
AcDbCircle
10
410
20
10
30
0
40
1.4999999999999858
0
CIRCLE
5
132
100
AcDbEntity
8
0
100
AcDbCircle
10
652.53048327204942
20
-102.53048327204934
30
0
40
1.4999999999999147
0
CIRCLE
5
133
100
AcDbEntity
8
0
100
AcDbCircle
10
390
20
-4.1554919796641618e-17
30
0
40
1.4999999999999858
0
CIRCLE
5
134
100
AcDbEntity
8
0
100
AcDbCircle
10
670.20815280171303
20
52
30
0
40
1.5000000000000568
0
CIRCLE
5
135
100
AcDbEntity
8
0
100
AcDbCircle
10
450.48000000000013
20
-25.235000000000003
30
0
40
1.6499999999999915
0
CIRCLE
5
136
100
AcDbEntity
8
0
100
AcDbCircle
10
450
20
30
30
0
40
1.4999999999999858
0
CIRCLE
5
137
100
AcDbEntity
8
0
100
AcDbCircle
10
430
20
30
30
0
40
1.4999999999999858
0
CIRCLE
5
138
100
AcDbEntity
8
0
100
AcDbCircle
10
410
20
50
30
0
40
1.4999999999999858
0
CIRCLE
5
139
100
AcDbEntity
8
0
100
AcDbCircle
10
537.5
20
-24.160000000000036
30
0
40
1.4999999999999858
0
CIRCLE
5
140
100
AcDbEntity
8
0
100
AcDbCircle
10
550
20
-1.7763568394002505e-14
30
0
40
190
0
ENDSEC
0
SECTION
2
OBJECTS
0
DICTIONARY
5
C
100
AcDbDictionary
3
ACAD_GROUP
350
D
3
ACAD_MLINESTYLE
350
17
0
DICTIONARY
5
D
100
AcDbDictionary
0
DICTIONARY
5
1A
330
C
100
AcDbDictionary
0
DICTIONARY
5
17
100
AcDbDictionary
0
ENDSEC
0
EOF
