0
SECTION
2
HEADER
9
$INSUNITS
70
4
9
$ACADVER
1
AC1014
9
$HANDSEED
5
FFFF
0
ENDSEC
0
SECTION
2
TABLES
0
TABLE
2
VPORT
5
8
100
AcDbSymbolTable
0
ENDTAB
0
TABLE
2
LTYPE
5
5
100
AcDbSymbolTable
0
LTYPE
5
14
100
AcDbSymbolTableRecord
100
AcDbLinetypeTableRecord
2
BYBLOCK
70
0
0
LTYPE
5
15
100
AcDbSymbolTableRecord
100
AcDbLinetypeTableRecord
2
BYLAYER
70
0
0
ENDTAB
0
TABLE
2
LAYER
5
2
100
AcDbSymbolTable
70
2
0
LAYER
5
50
100
AcDbSymbolTableRecord
100
AcDbLayerTableRecord
2
0
70
0
6
CONTINUOUS
0
ENDTAB
0
TABLE
2
STYLE
5
3
100
AcDbSymbolTable
70
1
0
STYLE
5
11
100
AcDbSymbolTableRecord
100
AcDbTextStyleTableRecord
2
STANDARD
70
0
0
ENDTAB
0
TABLE
2
VIEW
5
6
100
AcDbSymbolTable
70
0
0
ENDTAB
0
TABLE
2
UCS
5
7
100
AcDbSymbolTable
70
0
0
ENDTAB
0
TABLE
2
APPID
5
9
100
AcDbSymbolTable
70
2
0
APPID
5
12
100
AcDbSymbolTableRecord
100
AcDbRegAppTableRecord
2
ACAD
70
0
0
ENDTAB
0
TABLE
2
DIMSTYLE
5
A
100
AcDbSymbolTable
70
1
0
ENDTAB
0
TABLE
2
BLOCK_RECORD
5
1
100
AcDbSymbolTable
70
1
0
BLOCK_RECORD
5
1F
100
AcDbSymbolTableRecord
100
AcDbBlockTableRecord
2
*MODEL_SPACE
0
BLOCK_RECORD
5
1B
100
AcDbSymbolTableRecord
100
AcDbBlockTableRecord
2
*PAPER_SPACE
0
ENDTAB
0
ENDSEC
0
SECTION
2
BLOCKS
0
BLOCK
5
20
100
AcDbEntity
100
AcDbBlockBegin
2
*MODEL_SPACE
0
ENDBLK
5
21
100
AcDbEntity
100
AcDbBlockEnd
0
BLOCK
5
1C
100
AcDbEntity
100
AcDbBlockBegin
2
*PAPER_SPACE
0
ENDBLK
5
1D
100
AcDbEntity
100
AcDbBlockEnd
0
ENDSEC
0
SECTION
2
ENTITIES
0
CIRCLE
5
100
100
AcDbEntity
8
0
100
AcDbCircle
10
-772.46951672795058
20
102.53048327204937
30
0
40
1.5000000000000568
0
CIRCLE
5
101
100
AcDbEntity
8
0
100
AcDbCircle
10
-1050
20
0
30
0
40
1.5000000000000568
0
CIRCLE
5
102
100
AcDbEntity
8
0
100
AcDbCircle
10
-700
20
0
30
0
40
1.5000000000000568
0
CIRCLE
5
103
100
AcDbEntity
8
0
100
AcDbCircle
10
-995.20815280171314
20
-120.20815280171314
30
0
40
1.4999999999999147
0
CIRCLE
5
104
100
AcDbEntity
8
0
100
AcDbCircle
10
-825
20
130
30
0
40
2.0000000000000284
0
CIRCLE
5
105
100
AcDbEntity
8
0
100
AcDbCircle
10
-754.79184719828686
20
-120.20815280171313
30
0
40
1.4999999999999147
0
CIRCLE
5
106
100
AcDbEntity
8
0
100
AcDbCircle
10
-903.2842712474619
20
-28.284271247462005
30
0
40
1.5000000000000568
0
CIRCLE
5
107
100
AcDbEntity
8
0
100
AcDbCircle
10
-889.14213562373095
20
-14.142135623731029
30
0
40
1.5000000000000568
0
CIRCLE
5
108
100
AcDbEntity
8
0
100
AcDbCircle
10
-846.7157287525381
20
28.284271247461863
30
0
40
1.5000000000000568
0
CIRCLE
5
109
100
AcDbEntity
8
0
100
AcDbCircle
10
-860.85786437626905
20
14.142135623730923
30
0
40
1.5000000000000568
0
CIRCLE
5
110
100
AcDbEntity
8
0
100
AcDbCircle
10
-875
20
170
30
0
40
1.5000000000000568
0
CIRCLE
5
111
100
AcDbEntity
8
0
100
AcDbCircle
10
-977.53048327204942
20
102.53048327204935
30
0
40
1.4999999999999147
0
CIRCLE
5
112
100
AcDbEntity
8
0
100
AcDbCircle
10
-995.20815280171314
20
120.20815280171306
30
0
40
1.4999999999999147
0
LWPOLYLINE
5
113
100
AcDbEntity
8
0
100
AcDbPolyline
90
4
70
1
43
0.0
10
-1011.1435087792411
20
-107.85923753177933
10
-982.15213075059285
20
-78.86785950313083
10
-997.00137315550808
20
-64.018617098214747
10
-1025.9927511841581
20
-93.00999512686144
0
CIRCLE
5
114
100
AcDbEntity
8
0
100
AcDbCircle
10
-977.53048327204942
20
-102.53048327204945
30
0
40
1.5000000000000568
0
CIRCLE
5
115
100
AcDbEntity
8
0
100
AcDbCircle
10
-767.14076246822196
20
-72.645319828689622
30
0
40
1.5000000000000568
0
CIRCLE
5
116
100
AcDbEntity
8
0
100
AcDbCircle
10
-925
20
130
30
0
40
2.0000000000000284
0
CIRCLE
5
117
100
AcDbEntity
8
0
100
AcDbCircle
10
-982.85923753177804
20
-72.645319828689622
30
0
40
1.5000000000000568
0
CIRCLE
5
118
100
AcDbEntity
8
0
100
AcDbCircle
10
-825
20
76.666666666666671
30
0
40
2.0000000000000284
0
CIRCLE
5
119
100
AcDbEntity
8
0
100
AcDbCircle
10
-850
20
76.666666666666671
30
0
40
2.0000000000000284
0
CIRCLE
5
120
100
AcDbEntity
8
0
100
AcDbCircle
10
-875
20
76.666666666666671
30
0
40
2.0000000000000284
0
CIRCLE
5
121
100
AcDbEntity
8
0
100
AcDbCircle
10
-715
20
-1.048086166195653e-13
30
0
40
1.5000000000000568
0
CIRCLE
5
122
100
AcDbEntity
8
0
100
AcDbCircle
10
-1035
20
-4.1554919796641618e-17
30
0
40
1.5000000000000568
0
CIRCLE
5
123
100
AcDbEntity
8
0
100
AcDbCircle
10
-772.46951672795058
20
-102.53048327204935
30
0
40
1.4999999999999147
0
CIRCLE
5
124
100
AcDbEntity
8
0
100
AcDbCircle
10
-900
20
76.666666666666671
30
0
40
2.0000000000000284
0
CIRCLE
5
125
100
AcDbEntity
8
0
100
AcDbCircle
10
-925
20
76.666666666666671
30
0
40
2.0000000000000284
0
CIRCLE
5
126
100
AcDbEntity
8
0
100
AcDbCircle
10
-825
20
50
30
0
40
2.0000000000000284
0
CIRCLE
5
127
100
AcDbEntity
8
0
100
AcDbCircle
10
-850
20
50
30
0
40
2.0000000000000284
0
CIRCLE
5
128
100
AcDbEntity
8
0
100
AcDbCircle
10
-875
20
50
30
0
40
2.0000000000000284
0
CIRCLE
5
129
100
AcDbEntity
8
0
100
AcDbCircle
10
-900
20
50
30
0
40
2.0000000000000284
0
CIRCLE
5
130
100
AcDbEntity
8
0
100
AcDbCircle
10
-925
20
50
30
0
40
2.0000000000000284
0
LWPOLYLINE
5
131
100
AcDbEntity
8
0
100
AcDbPolyline
90
4
70
1
43
0.0
10
-738.85649122075893
20
-107.85923753177933
10
-724.00724881584199
20
-93.00999512686144
10
-752.99862684449192
20
-64.018617098214747
10
-767.84786924940715
20
-78.86785950313083
0
CIRCLE
5
132
100
AcDbEntity
8
0
100
AcDbCircle
10
-850
20
130
30
0
40
2.0000000000000284
0
CIRCLE
5
133
100
AcDbEntity
8
0
100
AcDbCircle
10
-1017.3660484536836
20
-107.15213075059259
30
0
40
1.5000000000000568
0
CIRCLE
5
134
100
AcDbEntity
8
0
100
AcDbCircle
10
-724.71435559702763
20
-99.232534801302563
30
0
40
1.5000000000000568
0
CIRCLE
5
135
100
AcDbEntity
8
0
100
AcDbCircle
10
-850
20
103.33333333333334
30
0
40
2.0000000000000284
0
CIRCLE
5
136
100
AcDbEntity
8
0
100
AcDbCircle
10
-825
20
103.33333333333334
30
0
40
2.0000000000000284
0
CIRCLE
5
137
100
AcDbEntity
8
0
100
AcDbCircle
10
-900
20
130
30
0
40
2.0000000000000284
0
CIRCLE
5
138
100
AcDbEntity
8
0
100
AcDbCircle
10
-990.77883348106741
20
-64.725723879400419
30
0
40
1.5000000000000568
0
CIRCLE
5
139
100
AcDbEntity
8
0
100
AcDbCircle
10
-900
20
103.33333333333334
30
0
40
2.0000000000000284
0
CIRCLE
5
140
100
AcDbEntity
8
0
100
AcDbCircle
10
-732.63395154631644
20
-107.1521307505926
30
0
40
1.5000000000000568
0
CIRCLE
5
141
100
AcDbEntity
8
0
100
AcDbCircle
10
-759.22116651893259
20
-64.725723879400405
30
0
40
1.5000000000000568
0
CIRCLE
5
142
100
AcDbEntity
8
0
100
AcDbCircle
10
-754.79184719828697
20
120.20815280171313
30
0
40
1.4999999999999147
0
CIRCLE
5
143
100
AcDbEntity
8
0
100
AcDbCircle
10
-875
20
155
30
0
40
1.5000000000000568
0
CIRCLE
5
144
100
AcDbEntity
8
0
100
AcDbCircle
10
-1025.2856444029724
20
-99.232534801302577
30
0
40
1.5000000000000568
0
CIRCLE
5
145
100
AcDbEntity
8
0
100
AcDbCircle
10
-875
20
103.33333333333334
30
0
40
2.0000000000000284
0
CIRCLE
5
146
100
AcDbEntity
8
0
100
AcDbCircle
10
-925
20
103.33333333333334
30
0
40
2.0000000000000284
0
CIRCLE
5
147
100
AcDbEntity
8
0
100
AcDbCircle
10
-875
20
130
30
0
40
2.0000000000000284
0
LWPOLYLINE
5
148
100
AcDbEntity
8
0
100
AcDbPolyline
90
4
70
1
43
0.0
10
-752.87035415955756
20
-145.54844419260581
10
-833.04501844113599
20
-50.000000000000085
10
-916.95498155886412
20
-50.000000000000178
10
-997.12964584044244
20
-145.54844419260593
42
-2.7474774194546234
0
ENDSEC
0
SECTION
2
OBJECTS
0
DICTIONARY
5
C
100
AcDbDictionary
3
ACAD_GROUP
350
D
3
ACAD_MLINESTYLE
350
17
0
DICTIONARY
5
D
100
AcDbDictionary
0
DICTIONARY
5
1A
330
C
100
AcDbDictionary
0
DICTIONARY
5
17
100
AcDbDictionary
0
ENDSEC
0
EOF
