0
SECTION
2
HEADER
9
$INSUNITS
70
4
9
$ACADVER
1
AC1014
9
$HANDSEED
5
FFFF
0
ENDSEC
0
SECTION
2
TABLES
0
TABLE
2
VPORT
5
8
100
AcDbSymbolTable
0
ENDTAB
0
TABLE
2
LTYPE
5
5
100
AcDbSymbolTable
0
LTYPE
5
14
100
AcDbSymbolTableRecord
100
AcDbLinetypeTableRecord
2
BYBLOCK
70
0
0
LTYPE
5
15
100
AcDbSymbolTableRecord
100
AcDbLinetypeTableRecord
2
BYLAYER
70
0
0
ENDTAB
0
TABLE
2
LAYER
5
2
100
AcDbSymbolTable
70
2
0
LAYER
5
50
100
AcDbSymbolTableRecord
100
AcDbLayerTableRecord
2
0
70
0
6
CONTINUOUS
0
ENDTAB
0
TABLE
2
STYLE
5
3
100
AcDbSymbolTable
70
1
0
STYLE
5
11
100
AcDbSymbolTableRecord
100
AcDbTextStyleTableRecord
2
STANDARD
70
0
0
ENDTAB
0
TABLE
2
VIEW
5
6
100
AcDbSymbolTable
70
0
0
ENDTAB
0
TABLE
2
UCS
5
7
100
AcDbSymbolTable
70
0
0
ENDTAB
0
TABLE
2
APPID
5
9
100
AcDbSymbolTable
70
2
0
APPID
5
12
100
AcDbSymbolTableRecord
100
AcDbRegAppTableRecord
2
ACAD
70
0
0
ENDTAB
0
TABLE
2
DIMSTYLE
5
A
100
AcDbSymbolTable
70
1
0
ENDTAB
0
TABLE
2
BLOCK_RECORD
5
1
100
AcDbSymbolTable
70
1
0
BLOCK_RECORD
5
1F
100
AcDbSymbolTableRecord
100
AcDbBlockTableRecord
2
*MODEL_SPACE
0
BLOCK_RECORD
5
1B
100
AcDbSymbolTableRecord
100
AcDbBlockTableRecord
2
*PAPER_SPACE
0
ENDTAB
0
ENDSEC
0
SECTION
2
BLOCKS
0
BLOCK
5
20
100
AcDbEntity
100
AcDbBlockBegin
2
*MODEL_SPACE
0
ENDBLK
5
21
100
AcDbEntity
100
AcDbBlockEnd
0
BLOCK
5
1C
100
AcDbEntity
100
AcDbBlockBegin
2
*PAPER_SPACE
0
ENDBLK
5
1D
100
AcDbEntity
100
AcDbBlockEnd
0
ENDSEC
0
SECTION
2
ENTITIES
0
CIRCLE
5
100
100
AcDbEntity
8
0
100
AcDbCircle
10
499.99999999999994
20
100
30
0
40
2.9999999999999716
0
CIRCLE
5
101
100
AcDbEntity
8
0
100
AcDbCircle
10
524.99999999999989
20
130
30
0
40
2.9999999999999716
0
CIRCLE
5
102
100
AcDbEntity
8
0
100
AcDbCircle
10
374.99999999999994
20
0
30
0
40
1.4999999999999858
0
CIRCLE
5
103
100
AcDbEntity
8
0
100
AcDbCircle
10
710
20
-1.048086166195653e-13
30
0
40
1.5000000000000568
0
CIRCLE
5
104
100
AcDbEntity
8
0
100
AcDbCircle
10
670.20815280171314
20
120.20815280171313
30
0
40
1.4999999999999147
0
CIRCLE
5
105
100
AcDbEntity
8
0
100
AcDbCircle
10
574.99999999999989
20
70
30
0
40
2.9999999999999716
0
CIRCLE
5
106
100
AcDbEntity
8
0
100
AcDbCircle
10
599.99999999999989
20
100
30
0
40
2.9999999999999716
0
CIRCLE
5
107
100
AcDbEntity
8
0
100
AcDbCircle
10
549.99999999999989
20
130
30
0
40
2.9999999999999716
0
CIRCLE
5
108
100
AcDbEntity
8
0
100
AcDbCircle
10
550.00000000000011
20
155
30
0
40
1.4999999999999858
0
CIRCLE
5
109
100
AcDbEntity
8
0
100
AcDbCircle
10
524.99999999999989
20
70
30
0
40
2.9999999999999716
0
CIRCLE
5
110
100
AcDbEntity
8
0
100
AcDbCircle
10
429.79184719828686
20
120.20815280171306
30
0
40
1.4999999999999858
0
CIRCLE
5
111
100
AcDbEntity
8
0
100
AcDbCircle
10
524.99999999999989
20
100
30
0
40
2.9999999999999716
0
CIRCLE
5
112
100
AcDbEntity
8
0
100
AcDbCircle
10
499.99999999999994
20
130
30
0
40
2.9999999999999716
0
LWPOLYLINE
5
113
100
AcDbEntity
8
0
100
AcDbPolyline
90
4
70
1
43
0.0
10
409.56806466562279
20
37.271196020209025
10
368.56806466562284
20
37.271196020209025
10
368.56806466562284
20
16.271196020209029
10
409.56806466562279
20
16.271196020209029
0
CIRCLE
5
114
100
AcDbEntity
8
0
100
AcDbCircle
10
447.46951672795058
20
102.53048327204935
30
0
40
1.4999999999999858
0
CIRCLE
5
115
100
AcDbEntity
8
0
100
AcDbCircle
10
599.99999999999989
20
70
30
0
40
2.9999999999999716
0
CIRCLE
5
116
100
AcDbEntity
8
0
100
AcDbCircle
10
389.99999999999994
20
-4.1554919796641618e-17
30
0
40
1.4999999999999858
0
CIRCLE
5
117
100
AcDbEntity
8
0
100
AcDbCircle
10
652.53048327204942
20
102.53048327204937
30
0
40
1.5000000000000568
0
CIRCLE
5
118
100
AcDbEntity
8
0
100
AcDbCircle
10
599.99999999999989
20
130
30
0
40
2.9999999999999716
0
CIRCLE
5
119
100
AcDbEntity
8
0
100
AcDbCircle
10
574.99999999999989
20
100
30
0
40
2.9999999999999716
0
CIRCLE
5
120
100
AcDbEntity
8
0
100
AcDbCircle
10
725
20
0
30
0
40
1.5000000000000568
0
CIRCLE
5
121
100
AcDbEntity
8
0
100
AcDbCircle
10
549.99999999999989
20
70
30
0
40
2.9999999999999716
0
CIRCLE
5
122
100
AcDbEntity
8
0
100
AcDbCircle
10
499.99999999999994
20
70
30
0
40
2.9999999999999716
0
CIRCLE
5
123
100
AcDbEntity
8
0
100
AcDbCircle
10
549.91471131057824
20
169.99998085747131
30
0
40
1.4999999999999858
0
CIRCLE
5
124
100
AcDbEntity
8
0
100
AcDbCircle
10
574.99999999999989
20
130
30
0
40
2.9999999999999716
0
CIRCLE
5
125
100
AcDbEntity
8
0
100
AcDbCircle
10
549.99999999999989
20
100
30
0
40
2.9999999999999716
0
LWPOLYLINE
5
126
100
AcDbEntity
8
0
100
AcDbPolyline
90
2
70
1
43
0.0
10
361.10533624092864
20
-20.464750263501035
42
-1.1211524783083082
10
738.62683468620276
20
-22.801693714808806
42
0.26299992800126931
0
ENDSEC
0
SECTION
2
OBJECTS
0
DICTIONARY
5
C
100
AcDbDictionary
3
ACAD_GROUP
350
D
3
ACAD_MLINESTYLE
350
17
0
DICTIONARY
5
D
100
AcDbDictionary
0
DICTIONARY
5
1A
330
C
100
AcDbDictionary
0
DICTIONARY
5
17
100
AcDbDictionary
0
ENDSEC
0
EOF
