0
SECTION
2
HEADER
9
$INSUNITS
70
4
9
$ACADVER
1
AC1014
9
$HANDSEED
5
FFFF
0
ENDSEC
0
SECTION
2
TABLES
0
TABLE
2
VPORT
5
8
100
AcDbSymbolTable
0
ENDTAB
0
TABLE
2
LTYPE
5
5
100
AcDbSymbolTable
0
LTYPE
5
14
100
AcDbSymbolTableRecord
100
AcDbLinetypeTableRecord
2
BYBLOCK
70
0
0
LTYPE
5
15
100
AcDbSymbolTableRecord
100
AcDbLinetypeTableRecord
2
BYLAYER
70
0
0
ENDTAB
0
TABLE
2
LAYER
5
2
100
AcDbSymbolTable
70
2
0
LAYER
5
50
100
AcDbSymbolTableRecord
100
AcDbLayerTableRecord
2
0
70
0
6
CONTINUOUS
0
ENDTAB
0
TABLE
2
STYLE
5
3
100
AcDbSymbolTable
70
1
0
STYLE
5
11
100
AcDbSymbolTableRecord
100
AcDbTextStyleTableRecord
2
STANDARD
70
0
0
ENDTAB
0
TABLE
2
VIEW
5
6
100
AcDbSymbolTable
70
0
0
ENDTAB
0
TABLE
2
UCS
5
7
100
AcDbSymbolTable
70
0
0
ENDTAB
0
TABLE
2
APPID
5
9
100
AcDbSymbolTable
70
2
0
APPID
5
12
100
AcDbSymbolTableRecord
100
AcDbRegAppTableRecord
2
ACAD
70
0
0
ENDTAB
0
TABLE
2
DIMSTYLE
5
A
100
AcDbSymbolTable
70
1
0
ENDTAB
0
TABLE
2
BLOCK_RECORD
5
1
100
AcDbSymbolTable
70
1
0
BLOCK_RECORD
5
1F
100
AcDbSymbolTableRecord
100
AcDbBlockTableRecord
2
*MODEL_SPACE
0
BLOCK_RECORD
5
1B
100
AcDbSymbolTableRecord
100
AcDbBlockTableRecord
2
*PAPER_SPACE
0
ENDTAB
0
ENDSEC
0
SECTION
2
BLOCKS
0
BLOCK
5
20
100
AcDbEntity
100
AcDbBlockBegin
2
*MODEL_SPACE
0
ENDBLK
5
21
100
AcDbEntity
100
AcDbBlockEnd
0
BLOCK
5
1C
100
AcDbEntity
100
AcDbBlockBegin
2
*PAPER_SPACE
0
ENDBLK
5
1D
100
AcDbEntity
100
AcDbBlockEnd
0
ENDSEC
0
SECTION
2
ENTITIES
0
CIRCLE
5
100
100
AcDbEntity
8
0
100
AcDbCircle
10
0
20
0
30
0
40
190
0
CIRCLE
5
101
100
AcDbEntity
8
0
100
AcDbCircle
10
124.99999999999987
20
-30
30
0
40
1.5000000000000038
0
CIRCLE
5
102
100
AcDbEntity
8
0
100
AcDbCircle
10
113.99999999999989
20
-30
30
0
40
1.5000000000000002
0
LINE
5
103
100
AcDbEntity
8
0
100
AcDbLine
10
-6.9244754019850801e-14
20
-190
30
0
11
6.9244754019850801e-14
21
190
31
0
0
LINE
5
104
100
AcDbEntity
8
0
100
AcDbLine
10
6.3778062913020483e-14
20
175
30
0
11
8.8000000000000647
21
175
31
0
0
CIRCLE
5
105
100
AcDbEntity
8
0
100
AcDbCircle
10
8.8000000000000647
20
175
30
0
40
1.4999999999999964
0
CIRCLE
5
106
100
AcDbEntity
8
0
100
AcDbCircle
10
-8.7999999999999385
20
175
30
0
40
1.4999999999999964
0
CIRCLE
5
107
100
AcDbEntity
8
0
100
AcDbCircle
10
8.8000000000000647
20
-175
30
0
40
1.4999999999999964
0
CIRCLE
5
108
100
AcDbEntity
8
0
100
AcDbCircle
10
-8.7999999999999154
20
-175
30
0
40
1.4999999999999964
0
LINE
5
109
100
AcDbEntity
8
0
100
AcDbLine
10
-134.35028842544403
20
134.35028842544398
30
0
11
134.35028842544406
21
-134.35028842544401
31
0
0
LINE
5
110
100
AcDbEntity
8
0
100
AcDbLine
10
-134.35028842544401
20
-134.35028842544403
30
0
11
134.35028842544401
21
134.35028842544409
31
0
0
CIRCLE
5
111
100
AcDbEntity
8
0
100
AcDbCircle
10
175
20
0
30
0
40
1.4999999999999902
0
CIRCLE
5
112
100
AcDbEntity
8
0
100
AcDbCircle
10
-5.6489141437246703e-14
20
-155
30
0
40
1.5000000000000002
0
CIRCLE
5
113
100
AcDbEntity
8
0
100
AcDbCircle
10
-175
20
1.4210854715202004e-13
30
0
40
1.4999999999999902
0
CIRCLE
5
114
100
AcDbEntity
8
0
100
AcDbCircle
10
102.53048327204942
20
-102.53048327204937
30
0
40
1.500000000000008
0
CIRCLE
5
115
100
AcDbEntity
8
0
100
AcDbCircle
10
-14.14213562373094
20
-14.142135623730958
30
0
40
1.5000000000000082
0
CIRCLE
5
116
100
AcDbEntity
8
0
100
AcDbCircle
10
14.142135623730958
20
14.142135623730972
30
0
40
1.5000000000000082
0
CIRCLE
5
117
100
AcDbEntity
8
0
100
AcDbCircle
10
-102.53048327204942
20
102.53048327204937
30
0
40
1.500000000000008
0
LINE
5
118
100
AcDbEntity
8
0
100
AcDbLine
10
129.99999999999989
20
0
30
0
11
129.99999999999989
21
-37
31
0
0
LINE
5
119
100
AcDbEntity
8
0
100
AcDbLine
10
129.99999999999989
20
-37
30
0
11
106.99999999999986
21
-37.000000000000028
31
0
0
LINE
5
120
100
AcDbEntity
8
0
100
AcDbLine
10
-190
20
0
30
0
11
190
21
0
31
0
0
LINE
5
121
100
AcDbEntity
8
0
100
AcDbLine
10
129.99999999999989
20
-37
30
0
11
131.99999977387324
21
-36.999048944537392
31
0
0
LINE
5
122
100
AcDbEntity
8
0
100
AcDbLine
10
131.99999977387324
20
-36.999048944537392
30
0
11
131.99881507908808
21
-51.999048897754022
31
0
0
LINE
5
123
100
AcDbEntity
8
0
100
AcDbLine
10
131.99881507908808
20
-51.999048897754022
30
0
11
166.99862940081823
21
-52.113055232733615
31
0
0
LINE
5
124
100
AcDbEntity
8
0
100
AcDbLine
10
166.99862940081823
20
-52.113055232733615
30
0
11
166.99862940081826
21
0
31
0
0
LINE
5
125
100
AcDbEntity
8
0
100
AcDbLine
10
129.99999999999986
20
0
30
0
11
129.99999999999989
21
37
31
0
0
LINE
5
126
100
AcDbEntity
8
0
100
AcDbLine
10
131.99881507908805
20
51.999048897754008
30
0
11
166.99862940081826
21
52.113055232733615
31
0
0
LINE
5
127
100
AcDbEntity
8
0
100
AcDbLine
10
131.99999977387324
20
36.999048944537392
30
0
11
131.99881507908805
21
51.999048897754008
31
0
0
LINE
5
128
100
AcDbEntity
8
0
100
AcDbLine
10
166.99862940081826
20
52.113055232733615
30
0
11
166.99862940081826
21
0
31
0
0
CIRCLE
5
129
100
AcDbEntity
8
0
100
AcDbCircle
10
124.99999999999987
20
30
30
0
40
1.5000000000000038
0
LINE
5
130
100
AcDbEntity
8
0
100
AcDbLine
10
129.99999999999989
20
37
30
0
11
131.99999977387324
21
36.999048944537392
31
0
0
CIRCLE
5
131
100
AcDbEntity
8
0
100
AcDbCircle
10
113.99999999999989
20
30
30
0
40
1.5000000000000002
0
LINE
5
132
100
AcDbEntity
8
0
100
AcDbLine
10
-129.99999999999989
20
1.0658141036401503e-13
30
0
11
-130.00000000000003
21
-36.999999999999901
31
0
0
CIRCLE
5
133
100
AcDbEntity
8
0
100
AcDbCircle
10
-113.99999999999991
20
-29.999999999999922
30
0
40
1.5000000000000002
0
CIRCLE
5
134
100
AcDbEntity
8
0
100
AcDbCircle
10
-124.99999999999991
20
-29.999999999999911
30
0
40
1.5000000000000038
0
LINE
5
135
100
AcDbEntity
8
0
100
AcDbLine
10
-130.00000000000003
20
-36.999999999999901
30
0
11
-131.99999977387327
21
-36.999048944537314
31
0
0
LINE
5
136
100
AcDbEntity
8
0
100
AcDbLine
10
-131.99999977387327
20
-36.999048944537314
30
0
11
-131.9988150790881
21
-51.999048897753902
31
0
0
LINE
5
137
100
AcDbEntity
8
0
100
AcDbLine
10
-166.99862940081829
20
-52.113055232733501
30
0
11
-166.99862940081826
21
1.2172448913594664e-13
31
0
0
LINE
5
138
100
AcDbEntity
8
0
100
AcDbLine
10
-131.9988150790881
20
-51.999048897753902
30
0
11
-166.99862940081829
21
-52.113055232733501
31
0
0
CIRCLE
5
139
100
AcDbEntity
8
0
100
AcDbCircle
10
-113.99999999999984
20
30.000000000000078
30
0
40
1.5000000000000002
0
CIRCLE
5
140
100
AcDbEntity
8
0
100
AcDbCircle
10
-124.99999999999984
20
30.000000000000089
30
0
40
1.5000000000000038
0
LINE
5
141
100
AcDbEntity
8
0
100
AcDbLine
10
-129.99999999999986
20
1.0658141036401503e-13
30
0
11
-129.99999999999983
21
37.000000000000099
31
0
0
LINE
5
142
100
AcDbEntity
8
0
100
AcDbLine
10
-129.99999999999983
20
37.000000000000099
30
0
11
-131.99999977387318
21
36.999048944537478
31
0
0
LINE
5
143
100
AcDbEntity
8
0
100
AcDbLine
10
-131.99999977387318
20
36.999048944537478
30
0
11
-131.99881507908802
21
51.999048897754122
31
0
0
LINE
5
144
100
AcDbEntity
8
0
100
AcDbLine
10
-131.99881507908802
20
51.999048897754122
30
0
11
-166.99862940081817
21
52.113055232733728
31
0
0
LINE
5
145
100
AcDbEntity
8
0
100
AcDbLine
10
-166.99862940081817
20
52.113055232733728
30
0
11
-166.99862940081826
21
1.0127255593069558e-13
31
0
0
CIRCLE
5
146
100
AcDbEntity
8
0
100
AcDbCircle
10
-50
20
-130
30
0
40
3.0000000000000004
0
CIRCLE
5
147
100
AcDbEntity
8
0
100
AcDbCircle
10
-25
20
-130
30
0
40
3.0000000000000004
0
CIRCLE
5
148
100
AcDbEntity
8
0
100
AcDbCircle
10
0
20
-130
30
0
40
3.0000000000000004
0
CIRCLE
5
149
100
AcDbEntity
8
0
100
AcDbCircle
10
25
20
-130
30
0
40
3.0000000000000004
0
CIRCLE
5
150
100
AcDbEntity
8
0
100
AcDbCircle
10
50
20
-130
30
0
40
3.0000000000000004
0
CIRCLE
5
151
100
AcDbEntity
8
0
100
AcDbCircle
10
-50
20
-100
30
0
40
3.0000000000000004
0
CIRCLE
5
152
100
AcDbEntity
8
0
100
AcDbCircle
10
-25
20
-100
30
0
40
3.0000000000000004
0
CIRCLE
5
153
100
AcDbEntity
8
0
100
AcDbCircle
10
0
20
-100
30
0
40
3.0000000000000004
0
CIRCLE
5
154
100
AcDbEntity
8
0
100
AcDbCircle
10
25
20
-100
30
0
40
3.0000000000000004
0
CIRCLE
5
155
100
AcDbEntity
8
0
100
AcDbCircle
10
50
20
-100
30
0
40
3.0000000000000004
0
CIRCLE
5
156
100
AcDbEntity
8
0
100
AcDbCircle
10
-50
20
-70
30
0
40
3.0000000000000004
0
CIRCLE
5
157
100
AcDbEntity
8
0
100
AcDbCircle
10
-25
20
-70
30
0
40
3.0000000000000004
0
CIRCLE
5
158
100
AcDbEntity
8
0
100
AcDbCircle
10
0
20
-70
30
0
40
3.0000000000000004
0
CIRCLE
5
159
100
AcDbEntity
8
0
100
AcDbCircle
10
25
20
-70
30
0
40
3.0000000000000004
0
CIRCLE
5
160
100
AcDbEntity
8
0
100
AcDbCircle
10
50
20
-70
30
0
40
3.0000000000000004
0
CIRCLE
5
161
100
AcDbEntity
8
0
100
AcDbCircle
10
0
20
130
30
0
40
3.0000000000000004
0
CIRCLE
5
162
100
AcDbEntity
8
0
100
AcDbCircle
10
50
20
130
30
0
40
3.0000000000000004
0
CIRCLE
5
163
100
AcDbEntity
8
0
100
AcDbCircle
10
-50
20
100
30
0
40
3.0000000000000004
0
CIRCLE
5
164
100
AcDbEntity
8
0
100
AcDbCircle
10
0
20
100
30
0
40
3.0000000000000004
0
CIRCLE
5
165
100
AcDbEntity
8
0
100
AcDbCircle
10
-25
20
130
30
0
40
3.0000000000000004
0
CIRCLE
5
166
100
AcDbEntity
8
0
100
AcDbCircle
10
-50
20
70
30
0
40
3.0000000000000004
0
CIRCLE
5
167
100
AcDbEntity
8
0
100
AcDbCircle
10
50
20
70
30
0
40
3.0000000000000004
0
CIRCLE
5
168
100
AcDbEntity
8
0
100
AcDbCircle
10
25
20
130
30
0
40
3.0000000000000004
0
CIRCLE
5
169
100
AcDbEntity
8
0
100
AcDbCircle
10
25
20
100
30
0
40
3.0000000000000004
0
CIRCLE
5
170
100
AcDbEntity
8
0
100
AcDbCircle
10
0
20
70
30
0
40
3.0000000000000004
0
CIRCLE
5
171
100
AcDbEntity
8
0
100
AcDbCircle
10
25
20
70
30
0
40
3.0000000000000004
0
CIRCLE
5
172
100
AcDbEntity
8
0
100
AcDbCircle
10
-25
20
70
30
0
40
3.0000000000000004
0
CIRCLE
5
173
100
AcDbEntity
8
0
100
AcDbCircle
10
50
20
100
30
0
40
3.0000000000000004
0
CIRCLE
5
174
100
AcDbEntity
8
0
100
AcDbCircle
10
-50
20
130
30
0
40
3.0000000000000004
0
CIRCLE
5
175
100
AcDbEntity
8
0
100
AcDbCircle
10
-25
20
100
30
0
40
3.0000000000000004
0
CIRCLE
5
176
100
AcDbEntity
8
0
100
AcDbCircle
10
-102.53048327204937
20
-102.53048327204939
30
0
40
1.4999999999999978
0
CIRCLE
5
177
100
AcDbEntity
8
0
100
AcDbCircle
10
102.53048327204937
20
102.53048327204948
30
0
40
1.4999999999999978
0
ENDSEC
0
SECTION
2
OBJECTS
0
DICTIONARY
5
C
100
AcDbDictionary
3
ACAD_GROUP
350
D
3
ACAD_MLINESTYLE
350
17
0
DICTIONARY
5
D
100
AcDbDictionary
0
DICTIONARY
5
1A
330
C
100
AcDbDictionary
0
DICTIONARY
5
17
100
AcDbDictionary
0
ENDSEC
0
EOF
